<svg id="svg" version="1.1" viewBox="0 0 300 300" width="300" height="300" xmlns="http://www.w3.org/2000/svg"><svg xmlns="http://www.w3.org/2000/svg"><defs><clipPath id="clip-1"><rect x="0" y="0" transform="scale(0.14648,0.14648)" width="2048" height="2048" fill="none"/></clipPath></defs><g clip-path="url(#clip-1)" fill="none" fill-rule="nonzero" stroke="none" stroke-width="1" stroke-linecap="butt" stroke-linejoin="miter" stroke-miterlimit="10" stroke-dasharray="" stroke-dashoffset="0" font-family="none" font-weight="none" font-size="none" text-anchor="none" style="mix-blend-mode: normal"><path d="M0,0h300v300h-300z" fill="#000000"/><path d="M104.79419,82.07124c0.4418,0.07896 8.68477,4.41753 9.79585,4.98428c4.63945,2.36602 9.53525,4.83398 14.32075,6.97002c2.35854,1.05278 5.55586,1.67783 8.10688,2.27578c3.29341,0.73989 6.56851,1.55874 9.82266,2.45581c7.46338,2.10923 11.96631,4.06963 18.82324,7.19707c10.95996,4.99966 19.35205,9.7144 27.50537,18.74722c11.9751,13.26753 14.37891,27.34644 14.3877,44.67993c0.00146,4.58643 0.26953,9.48047 0.03662,14.0918c-1.92187,1.00928 -6.49072,4.41357 -8.3584,5.78027c-3.5376,2.58984 -7.10742,5.13721 -10.70801,7.6377c-2.16504,1.53369 -4.56738,3.36768 -6.79834,4.74316c0.88184,-6.54785 -1.24658,-16.16895 -4.13086,-22.04297c2.45801,-1.52051 7.96875,-4.80176 10.43262,-5.9458c-1.33154,-1.229 -3.65332,-5.09326 -4.13672,-6.854c-3.29004,2.04199 -6.66504,3.87451 -9.91406,6.03955c-1.76514,-2.59131 -2.71289,-3.8335 -4.83105,-6.10693c1.63916,-2.21631 3.85547,-4.35937 5.82275,-6.30029c0.57861,-0.57129 2.77588,-2.3833 2.93555,-2.92236c-0.99023,-0.54053 -4.37695,-4.81787 -5.21924,-5.90918c-0.82617,1.27588 -7.43408,7.30371 -8.87988,8.60742c-1.65674,-2.24707 -4.09863,-4.39307 -6.15381,-6.26514c2.62354,-3.48486 4.96143,-6.95947 7.6626,-10.44668c-1.37109,-0.80713 -4.50439,-3.81035 -5.83594,-5.03057c-2.82275,3.25591 -4.95264,7.17056 -7.49268,10.1584l-3.375,-2.64111c-0.83203,-0.63999 -1.91455,-1.46016 -2.88413,-1.83179c1.85581,-4.07314 3.43784,-9.09756 5.3978,-12.94658c-2.16211,-0.56455 -4.94648,-2.11699 -6.85825,-3.29004c-2.58149,6.8127 -5.28604,13.57822 -8.11187,20.29351c-0.75469,1.78711 -1.54043,3.55957 -2.35693,5.31885c-0.61348,1.3125 -1.44902,2.91943 -1.88965,4.24219c-7.49868,0.04541 -14.99766,0.04688 -22.49634,0.00439c-1.75005,2.53564 -3.80464,4.0459 -5.82363,7.37695c-1.74888,-1.01074 -3.16978,-1.8457 -5.05107,-2.61035c1.30093,-1.48096 4.69937,-6.38818 5.48218,-8.07422c-3.57539,-0.21387 -6.84023,-0.25195 -10.42104,-0.28857c-0.02461,-1.83105 -0.06035,-3.66211 -0.10723,-5.49316l10.46455,-0.03076c-1.59551,-2.98242 -3.27041,-4.82139 -4.78345,-8.0499c1.43584,-0.52266 4.13716,-1.92627 5.61519,-2.64097c0.55942,2.31885 3.36943,5.91108 4.24834,8.25366c4.22725,0.03809 9.17036,-0.42393 13.45957,-0.70181c1.02056,-1.54673 3.21694,-7.79795 4.2564,-10.04502c-0.87319,-0.90337 -2.46987,-3.26704 -3.3126,-4.38267c-1.21274,-1.60547 -2.14248,-2.66982 -3.49292,-4.16133c2.66616,-2.49551 4.97534,-5.8812 7.45093,-8.59673c1.44771,-1.58774 2.80679,-3.50654 4.36948,-4.96699c-2.30112,-1.33052 -4.71035,-2.52979 -7.02539,-3.9019c-2.87959,3.97515 -8.4394,11.05986 -12.05083,14.22231c-4.27515,-0.74355 -10.05762,-0.82939 -14.475,-1.21333c-5.91738,-0.51431 -11.7813,-1.17319 -17.69634,-1.73716c-1.41768,-0.13521 -8.11758,-0.53276 -8.97187,-0.94087c-1.52593,-0.7292 -5.68359,-4.81274 -7.2145,-6.15718c-1.69292,-1.48682 -3.88213,-3.38599 -5.52935,-4.92056c0.12598,-2.35122 2.07012,-16.92773 2.31592,-17.03613c1.36157,-0.60059 40.35015,-8.77705 43.67344,-9.59722z" fill="#e77726"/><path d="M91.93901,96.74927c0.34834,0.21123 1.56401,1.31045 1.99688,1.65249c2.10513,1.66362 4.85435,4.14067 7.28643,5.23125c-1.99702,1.30005 -6.60776,6.6 -8.25967,6.97632c-2.41201,-0.90337 -7.16865,-4.38208 -9.69419,-5.71406c1.75928,-1.18096 7.62275,-6.4248 8.67056,-8.146z" fill="#000000"/><path d="M145.40171,31.70332c3.69888,-0.39844 11.88149,0.08496 15.49819,0.38687c31.25684,2.75669 60.16553,17.72329 80.45947,41.6543c18.84814,22.34956 29.66602,51.81138 28.11914,81.13784c-0.23291,5.25879 -0.7998,10.49854 -1.69775,15.68555c-0.45557,2.59717 -1.5293,6.77637 -1.71973,9.23584l-0.01758,0.24756c-2.75977,-5.59277 -4.68311,-11.56201 -7.10156,-17.40527c-0.88477,-2.11377 -1.7959,-4.21582 -2.7334,-6.30615c-2.45215,-5.50488 -2.09766,-5.13721 -2.35254,-11.02485c-0.12451,-2.37832 -0.32812,-4.75181 -0.61084,-7.11665c-1.59082,-13.76455 -6.01904,-27.0498 -13.00342,-39.01699c-4.62158,-8.38843 -12.55078,-18.16172 -19.61133,-24.53965c-30.55371,-27.60278 -72.03809,-34.75327 -110.19712,-19.68018c-5.8084,2.33276 -11.38491,5.20562 -16.6563,8.58076c-1.12119,0.73286 -7.81465,5.57153 -8.39048,5.6833c-3.6356,0.70605 -10.27471,1.17891 -14.19639,1.69526c-3.36519,0.44312 -7.86885,1.28291 -10.97007,1.42339c1.50571,-1.39922 3.4582,-3.61289 4.93242,-5.15728c2.88501,-3.02271 5.37202,-5.44028 8.55308,-8.13823c17.92383,-15.01567 39.92534,-24.3334 63.18164,-26.75786c2.81821,-0.31069 5.68125,-0.43638 8.51455,-0.58755z" fill="#e77726"/><path d="M44.59658,94.72456c0.41587,0.9832 0.2647,3.29707 0.3542,4.57295c0.3293,4.69746 -0.1478,11.29028 1.02598,15.73667c0.27393,1.0377 3.50581,4.65923 4.34751,5.6168c-1.75093,6.42129 -3.08335,12.58638 -3.76553,19.24028c-2.61152,25.47056 4.68354,52.87632 21.30981,72.64878c-0.68818,5.15625 -0.18999,13.32422 0.86133,18.50684c0.2083,1.02686 1.5334,6.44238 1.30078,6.92139c-0.70327,-0.19336 -3.93691,-3.64307 -4.70024,-4.42236c-15.04541,-15.30762 -25.26987,-32.38623 -30.73726,-53.22656c-5.88677,-21.60791 -5.36484,-44.46152 1.50234,-65.77822c2.07891,-6.57642 5.02163,-13.85229 8.50107,-19.81655z" fill="#e77726"/><path d="M207.49365,192.32227c0.06885,0.28711 0.03809,0.05859 0.00586,0.39697c-0.89209,9.18896 -1.30078,18.76758 -3.79395,27.68408c-0.16406,0.58594 -2.86084,3.44971 -3.48779,4.24658c-9.88037,12.55371 -19.95264,24.95654 -30.84082,36.65918c-1.56445,1.68164 -4.96289,5.66748 -6.49805,6.83789c-9.84082,0.57275 -21.5001,-0.24902 -31.37842,-0.66943c-0.71836,-1.9248 -4.62114,-6.40137 -6.00732,-8.04346c-2.41904,-2.91211 -4.77012,-5.88135 -7.05132,-8.90332c7.31133,0.83203 14.6458,1.4458 21.99375,1.83984c4.35615,0.20068 9.17622,0.20654 13.55317,0.22412c2.22217,-2.25 4.54834,-4.93945 6.65771,-7.31543c4.86768,-5.43896 9.58447,-11.0083 14.146,-16.70508c6.68555,-8.23828 6.2168,-6.71191 6.76465,-17.58545c1.06201,-0.58301 2.25586,-1.51318 3.25781,-2.22803c5.27344,-3.76172 10.53662,-7.54248 15.78369,-11.33936c2.31006,-1.67285 4.49121,-3.56982 6.89502,-5.09912z" fill="#e77726"/><path d="M75.67324,181.04736c1.97256,0.1377 6.90967,2.77441 8.54429,3.81445c5.06851,3.3252 9.28535,7.90576 11.57153,13.66846c2.7668,6.97412 3.08276,17.83301 12.19248,19.8252c2.29336,0.50244 4.5939,-1.41357 4.86738,-3.79248c0.57993,-5.04346 -2.61826,-9.06885 -5.49448,-12.85107c6.74707,2.28369 13.83003,7.81201 17.5689,13.89258c3.66094,6.08789 5.15303,13.23486 4.23325,20.2793c-0.32388,2.59131 -1.04473,5.58691 -1.64355,8.12549c-1.35352,-0.03223 -2.8355,0.00586 -4.19912,0.01172c-0.16992,-6.40869 -2.82334,-11.85645 -9.58711,-13.04883c-4.40054,-0.77637 -7.34663,-0.49805 -11.55967,-2.66016c-2.70132,-1.50879 -4.62876,-3.35303 -6.72393,-5.55762c0.37354,2.99268 0.34937,5.39502 0.94805,8.53711c1.89287,9.93457 6.727,18.05566 13.63799,25.27148c1.31382,1.37695 2.69678,2.68652 4.14331,3.92432c0.82441,0.70166 2.34961,1.70654 2.91313,2.43457l-0.04453,0.2666c-1.38208,0.31787 -11.25132,-4.05469 -13.07563,-4.95703c-16.85259,-8.34082 -27.17476,-26.29834 -24.3665,-45.10254c1.48638,-9.95068 4.60708,-20.31592 -1.67183,-29.17529c-0.44473,-0.62695 -2.14102,-2.42432 -2.25396,-2.90625z" fill="#e77726"/><path d="M258.75146,195.6416c0.51563,-0.03516 0.90381,-0.04395 1.4209,-0.04248l0.104,0.18164c-2.25879,4.72119 -4.19385,9.13184 -6.85107,13.68457c-13.42236,22.72998 -33.99463,40.37695 -58.50293,50.18408c-5.01416,2.00684 -10.95264,3.76025 -16.22168,5.15186c-0.44385,0.09814 -0.52441,0.13184 -0.98877,0.13037l-0.14355,-0.19189c0.13916,-0.38379 5.45654,-6.17578 6.1626,-6.99023l9.95508,-11.66162c4.61426,-5.44482 3.10254,-4.17627 9.32666,-7.86621c15.9126,-9.43359 31.96143,-25.48828 39.89355,-42.41162c5.29248,-0.08643 10.53223,-0.01318 15.84521,-0.16846z" fill="#e77726"/><path d="M151.28906,60.47314c0.63574,0.46069 4.05908,7.75591 6.11279,9.70811c0.77637,-2.25542 2.34375,-6.02432 2.62793,-8.20474c2.28662,0.68613 3.48193,1.25347 5.61182,2.27637c-0.87012,1.95806 -2.31592,6.58638 -3.06885,8.77998c2.09033,1.64502 14.84326,12.64409 15.83057,14.37495c0.26367,2.91621 -5.29248,10.75708 -7.09863,13.77905c-2.22363,-1.44976 -8.63379,-4.09424 -11.16211,-5.11919c-1.37549,-0.53745 -2.95605,-1.00605 -4.37402,-1.45928c1.96582,-1.86504 4.42236,-4.15312 6.71484,-5.56479c-2.44629,-2.49199 -5.63232,-5.30669 -8.2251,-7.79927c-2.26611,1.08223 -5.60742,3.30146 -7.74316,4.70303c-0.99009,-1.47305 -2.36162,-2.73442 -3.46948,-4.29067c1.25522,-0.96182 5.36938,-3.05347 5.56274,-4.51919c-0.68701,-0.79717 -7.65996,-2.11406 -9.02783,-2.3606c0.39141,-1.76191 0.74062,-3.6252 1.102,-5.40088c3.48838,0.71089 6.50347,1.95894 10.08062,1.99131c-0.49219,-1.55259 -3.37646,-6.74238 -4.29639,-8.51719c1.60693,-0.60923 3.17285,-1.64648 4.82227,-2.377z" fill="#e77726"/><path d="M150.84229,173.89307c3.90234,-0.18018 12.10107,1.76953 16.17773,2.47852c1.57471,0.27393 5.99854,13.09424 6.60791,15.21826c-1.88672,-0.31494 -4.5542,-1.11768 -6.46289,-1.63184c-2.89307,-0.80713 -5.8125,-1.51611 -8.75391,-2.12695c-0.12598,0.18311 -0.24902,0.37061 -0.36768,0.55957c-5.66895,9.28125 -4.61133,8.10352 -2.10059,18.16699c-1.6626,0.54199 -3.92725,1.22314 -5.48145,1.89844c-0.17578,-0.75879 -0.5376,-1.83838 -0.7749,-2.61182c-0.53027,-1.9248 -1.0957,-3.83789 -1.69775,-5.74072c-1.88276,1.36963 -6.38262,6.70459 -7.94531,8.59131c-1.24746,-1.01367 -2.85674,-2.58105 -4.15298,-3.70605c2.09443,-2.57227 5.3042,-5.69678 7.01587,-8.40381c-3.15103,-0.16406 -6.27686,0.01318 -9.4355,0.10254l-0.04863,-5.51074l10.26797,-0.6123c0.85869,-3.00146 5.44116,-14.21484 7.1521,-16.67139z" fill="#e77726"/><path d="M223.87207,147.80566c1.26416,-0.09668 1.92188,0.55371 2.70557,1.48096c4.81348,5.70703 9.87891,11.61914 14.78174,17.19873c2.86963,-0.27393 6.09229,-0.16992 8.92383,-0.63721c0.2959,1.98633 0.52441,3.44824 1.31543,5.2998c-2.47852,0.1333 -7.12646,1.20117 -9.57422,1.73291c1.41211,1.58496 5.93408,6.1377 7.70508,6.88477c-1.49707,2.11523 -2.49902,2.69971 -3.86865,5.22217c-2.03174,-2.45215 -4.64209,-4.87061 -6.95947,-7.10303c-0.43359,-0.4248 -0.92432,-1.00195 -1.47363,-1.19385c-0.47607,0.58008 -1.44873,7.19385 -1.64941,8.43896c-1.61426,-0.40723 -3.70898,-0.63281 -5.38623,-0.85107c0.14941,-1.76221 1.02979,-9.29736 1.47949,-10.60693c-2.48437,-2.73926 -5.34375,-6.29443 -7.80176,-9.15674c-2.8623,2.26172 -7.42236,6.87744 -10.04883,8.48145c0.10254,-5.55176 0.04395,-11.10498 -0.17725,-16.65234c1.48242,-1.20557 2.92529,-2.45654 4.32861,-3.75439c1.71973,-1.59961 3.68701,-3.69141 5.69971,-4.78418z" fill="#e77726"/></g></svg></svg>